<svg width="52" height="45" viewBox="0 0 52 45" fill="none" xmlns="http://www.w3.org/2000/svg">
<path d="M13.8034 5.53816C14.6742 5.18278 15.6058 5 16.5463 5H20.2078C22.1945 5 23.805 6.61049 23.805 8.59712C23.805 10.5838 22.1945 12.1942 20.2079 12.1942H18.7039C17.1775 12.1942 15.7312 12.8778 14.7623 14.0573L14.244 14.6882C12.8696 17.2059 12.1493 20.0283 12.1493 22.8966V33.777L4.29278 33.2974L4.09766 31.3789V28.5971V26.1031L4.18924 22.5461C4.2578 19.8837 4.76417 17.2506 5.68804 14.7526L6.07681 13.7015C6.44726 12.6998 6.92879 11.7428 7.51236 10.8484L8.07735 9.98245C9.29762 8.1122 11.0589 6.65827 13.1265 5.81444L13.8034 5.53816Z" fill="#CED3FF"/>
<path d="M24.878 31.6669C24.878 37.2824 20.2043 41.8348 14.439 41.8348C8.67371 41.8348 4 37.2824 4 31.6669C4 26.0513 8.67371 21.499 14.439 21.499C20.2043 21.499 24.878 26.0513 24.878 31.6669Z" fill="#CED3FF"/>
<path d="M37.8034 5.53816C38.6742 5.18278 39.6058 5 40.5463 5H44.2078C46.1945 5 47.805 6.61049 47.805 8.59712C47.805 10.5838 46.1945 12.1942 44.2079 12.1942H42.7039C41.1775 12.1942 39.7312 12.8778 38.7623 14.0573L38.244 14.6882C36.8696 17.2059 36.1493 20.0283 36.1493 22.8966V33.777L28.2928 33.2974L28.0977 31.3789V28.5971V26.1031L28.1892 22.5461C28.2578 19.8837 28.7642 17.2506 29.688 14.7526L30.0768 13.7015C30.4473 12.6998 30.9288 11.7428 31.5124 10.8484L32.0774 9.98245C33.2976 8.1122 35.0589 6.65827 37.1265 5.81444L37.8034 5.53816Z" fill="#CED3FF"/>
<path d="M48.878 31.6669C48.878 37.2824 44.2043 41.8348 38.439 41.8348C32.6737 41.8348 28 37.2824 28 31.6669C28 26.0513 32.6737 21.499 38.439 21.499C44.2043 21.499 48.878 26.0513 48.878 31.6669Z" fill="#CED3FF"/>
</svg>
